@startuml
'https://plantuml.com/class-diagram

hide methods
left to right direction
skinparam classAttributeIconSize 0

class Employee {
-name
}

class Ports {
-identification
-name
}

class Company {
-designation
}

Company "1"--"1..*" Employee: have >
Company "1"--"1..*" Ports: have >
Employee "1" --- "1..*" Ports : controls >

@enduml